<svg width="303" height="120" viewBox="0 0 303 120" xmlns="http://www.w3.org/2000/svg"><path d="M60.32 98.963c-21.655 0-39.272-17.616-39.272-39.272 0-21.655 17.617-39.27 39.272-39.27 21.654 0 39.272 17.615 39.272 39.27 0 21.656-17.618 39.272-39.272 39.272zM303 50.629H119.04C114.664 22.155 89.999.279 60.32.279 27.56.28.908 26.933.908 59.692c0 32.761 26.651 59.412 59.412 59.412 28.973 0 53.154-20.852 58.36-48.335h111.483V96.95h20.139V81.845h16.112V96.95h20.14V70.768H303V50.63z" fill="#00A7E1" fill-rule="evenodd"/></svg>