<svg xmlns:xlink="http://www.w3.org/1999/xlink" width="8.801ex" height="3.176ex" style="font-size: 15px; vertical-align: -0.671ex;" viewBox="0 -1078.4 3789.2 1367.4" role="img" focusable="false" xmlns="http://www.w3.org/2000/svg">
<defs>
<path stroke-width="1" id="E1-MJMATHI-3B2" d="M29 -194Q23 -188 23 -186Q23 -183 102 134T186 465Q208 533 243 584T309 658Q365 705 429 705H431Q493 705 533 667T573 570Q573 465 469 396L482 383Q533 332 533 252Q533 139 448 65T257 -10Q227 -10 203 -2T165 17T143 40T131 59T126 65L62 -188Q60 -194 42 -194H29ZM353 431Q392 431 427 419L432 422Q436 426 439 429T449 439T461 453T472 471T484 495T493 524T501 560Q503 569 503 593Q503 611 502 616Q487 667 426 667Q384 667 347 643T286 582T247 514T224 455Q219 439 186 308T152 168Q151 163 151 147Q151 99 173 68Q204 26 260 26Q302 26 349 51T425 137Q441 171 449 214T457 279Q457 337 422 372Q380 358 347 358H337Q258 358 258 389Q258 396 261 403Q275 431 353 431Z"></path>
<path stroke-width="1" id="E1-MJMAIN-5E" d="M112 560L249 694L257 686Q387 562 387 560L361 531Q359 532 303 581L250 627L195 580Q182 569 169 557T148 538L140 532Q138 530 125 546L112 560Z"></path>
<path stroke-width="1" id="E1-MJMAIN-3D" d="M56 347Q56 360 70 367H707Q722 359 722 347Q722 336 708 328L390 327H72Q56 332 56 347ZM56 153Q56 168 72 173H708Q722 163 722 153Q722 140 707 133H70Q56 140 56 153Z"></path>
<path stroke-width="1" id="E1-MJMAINB-47" d="M465 -10Q281 -10 173 88T64 343Q64 413 85 471T143 568T217 631T298 670Q371 697 449 697Q452 697 459 697T470 696Q502 696 531 690T582 675T618 658T644 641T656 632L732 695Q734 697 745 697Q758 697 761 692T765 668V627V489V449Q765 428 761 424T741 419H731H724Q705 419 702 422T695 444Q683 520 631 577T495 635Q364 635 295 563Q261 528 247 477T232 343Q232 296 236 260T256 185T296 120T366 76T472 52Q481 51 498 51Q544 51 573 67T607 108Q608 111 608 164V214H464V276H479Q506 273 680 273Q816 273 834 276H845V214H765V113V51Q765 16 763 8T750 0Q742 2 709 16T658 40L648 46Q592 -10 465 -10Z"></path>
<path stroke-width="1" id="E1-MJMAIN-2020" d="M182 675Q195 705 222 705Q234 705 243 700T253 691T263 675L262 655Q262 620 252 549T240 454V449Q250 451 288 461T346 472T377 461T389 431Q389 417 379 404T346 390Q327 390 288 401T243 412H240V405Q245 367 250 339T258 301T261 274T263 225Q263 124 255 -41T239 -213Q236 -216 222 -216H217Q206 -216 204 -212T200 -186Q199 -175 199 -168Q181 38 181 225Q181 265 182 280T191 327T204 405V412H201Q196 412 157 401T98 390Q76 390 66 403T55 431T65 458T98 472Q116 472 155 462T205 449Q204 452 204 460T201 490T193 547Q182 619 182 655V675Z"></path>
<path stroke-width="1" id="E1-MJMAINB-7A" d="M48 262Q48 264 54 349T60 436V444H252Q289 444 336 444T394 445Q441 445 450 441T459 418Q459 406 458 404Q456 399 327 229T194 55H237Q260 56 268 56T297 58T325 65T348 77T370 98T384 128T395 170Q400 197 400 216Q400 217 431 217H462V211Q461 208 453 108T444 6V0H245Q46 0 43 2Q32 7 32 28V33Q32 41 40 52T84 112Q129 170 164 217L298 393H256Q189 392 165 380Q124 360 115 303Q110 280 110 256Q110 254 79 254H48V262Z"></path>
</defs>
<g stroke="currentColor" fill="currentColor" stroke-width="0" transform="matrix(1 0 0 -1 0 0)">
 <use xlink:href="#E1-MJMATHI-3B2" x="0" y="0"></use>
 <use xlink:href="#E1-MJMAIN-5E" x="124" y="283"></use>
 <use xlink:href="#E1-MJMAIN-3D" x="902" y="0"></use>
<g transform="translate(1958,0)">
 <use xlink:href="#E1-MJMAINB-47" x="0" y="0"></use>
 <use transform="scale(0.707)" xlink:href="#E1-MJMAIN-2020" x="1279" y="601"></use>
</g>
 <use xlink:href="#E1-MJMAINB-7A" x="3277" y="0"></use>
</g>
</svg>