<svg id="Calque_1" data-name="Calque 1" xmlns="http://www.w3.org/2000/svg" viewBox="0 0 882.79 63.95"><defs><style>.cls-1{fill:#74f9a9;}.cls-2{fill:#fff;}</style></defs><title>sous_titre</title><path class="cls-1" d="M8.18,8.67V46.18h8.67v8.24H0V8.67Z"/><path class="cls-1" d="M35.79,8.67v8.06H26.87v10h7v8.24h-7V46.18h9.35v8.24H18.69V8.67Z"/><path class="cls-1" d="M48.76,8.12c6.4,0,8.79,2.83,8.79,9v6.15H49.69V17.53c0-1.48-.31-2.4-1.78-2.4s-1.78.92-1.78,2.46v1c0,2.15.49,3.63,2.52,5.9l4.67,5.23c4.12,4.67,5,7.75,5,11.75v2.15c0,6.89-3.14,11.31-10,11.31h-1.6c-6.21,0-9.35-3.32-9.35-9.47V37.26h8.06v7.32c0,1.84.68,2.77,2.09,2.77s2-1.11,2-3.32v-.86c0-3.2-.18-4.49-2.64-7.13l-4.73-5.23c-3.44-3.69-4.37-7.19-4.37-11.62v-2c0-5.9,3.57-9.1,9.29-9.1Z"/><path class="cls-1" d="M85.54,8.67v8.06H79.69v37.7H71.52V16.73H65.67V8.67Z"/><path class="cls-1" d="M87.26,8.67h8.42V44.09c0,1.91.68,2.83,2,2.83s2-.92,2-2.83V8.67h8.42V43.78c0,7.63-3.57,11.31-9.47,11.31h-2c-6,0-9.35-3.69-9.35-11.31Z"/><path class="cls-1" d="M129.69,8.67v8.06h-5.84v37.7h-8.18V16.73h-5.84V8.67Z"/><path class="cls-1" d="M152.5,44c0,6.7-3.57,11.13-9.72,11.13h-1.84c-6.46,0-9.9-3.94-9.9-11.13V19.8c0-7.07,2.77-11.68,9.84-11.68h1.84c7.19,0,9.78,4.61,9.78,11.62ZM144,19.12c0-2-.74-3-2.15-3-1.66,0-2.21,1-2.21,3V44.21c0,1.41.55,2.71,2.28,2.71S144,45.63,144,44.21Z"/><path class="cls-1" d="M165.6,8.12c6.4,0,8.79,2.83,8.79,9v6.15h-7.87V17.53c0-1.48-.31-2.4-1.78-2.4S163,16,163,17.59v1c0,2.15.49,3.63,2.52,5.9l4.67,5.23c4.12,4.67,5,7.75,5,11.75v2.15c0,6.89-3.14,11.31-10,11.31h-1.6c-6.21,0-9.35-3.32-9.35-9.47V37.26h8.06v7.32c0,1.84.68,2.77,2.09,2.77s2-1.11,2-3.32v-.86c0-3.2-.18-4.49-2.64-7.13L159,30.81c-3.44-3.69-4.37-7.19-4.37-11.62v-2c0-5.9,3.57-9.1,9.29-9.1Z"/><path class="cls-1" d="M204.58,44c0,5.72-2.52,9.78-7.19,10.82L201.33,64H191.12V55c-5.23-.74-8-4.61-8-11V19.8c0-7.07,2.77-11.68,9.84-11.68h1.84c7.19,0,9.78,4.61,9.78,11.62ZM196,19.12c0-2-.74-3-2.15-3-1.66,0-2.21,1-2.21,3V44.21c0,1.41.55,2.71,2.28,2.71S196,45.63,196,44.21Z"/><path class="cls-1" d="M206.92,8.67h8.42V44.09c0,1.91.68,2.83,2,2.83s2-.92,2-2.83V8.67h8.42V43.78c0,7.63-3.57,11.31-9.47,11.31h-2c-6,0-9.35-3.69-9.35-11.31Z"/><path class="cls-1" d="M238.47,54.42h-8.18V8.67h8.18Z"/><path class="cls-1" d="M266.45,8.67v8.06H260.6v37.7h-8.18V16.73h-5.84V8.67Z"/><path class="cls-1" d="M285.32,8.67v8.06h-8.92v10h7v8.24h-7V46.18h9.35v8.24H268.23V8.67Z"/><path class="cls-1" d="M293.93,8.67h17.53v8h-9.35v10H309v8.24h-6.89V54.42h-8.18Z"/><path class="cls-1" d="M334.4,44c0,6.7-3.57,11.13-9.72,11.13h-1.84c-6.46,0-9.9-3.94-9.9-11.13V19.8c0-7.07,2.77-11.68,9.84-11.68h1.84c7.19,0,9.78,4.61,9.78,11.62Zm-8.55-24.84c0-2-.74-3-2.15-3-1.66,0-2.21,1-2.21,3V44.21c0,1.41.55,2.71,2.28,2.71s2.09-1.29,2.09-2.71Z"/><path class="cls-1" d="M344.48,8.67,350.08,32V8.67h7.26V54.42h-6.95L344,29.33V54.42h-7.26V8.67Z"/><path class="cls-1" d="M379,8.67v8.06h-5.84v37.7H365V16.73h-5.84V8.67Z"/><path class="cls-1" d="M395.27,36.1V54.42h-8.18V8.67h11.62c6.95,0,8.42,3.38,8.42,9v9.16c0,5.66-2.27,9.22-8,9.22Zm0-7.44h1.54c1.91,0,2.09-1.17,2.09-2.58V18.45c0-1.66-.18-2.71-2.09-2.71h-1.54Z"/><path class="cls-1" d="M418.89,46.73H414l-.74,7.69H406l5.78-45.75h9.72l6.21,45.75h-7.93Zm-4.12-7.87h3.32l-1.72-15.68Z"/><path class="cls-1" d="M439.61,8.12c6.4,0,8.79,2.83,8.79,9v6.15h-7.87V17.53c0-1.48-.31-2.4-1.78-2.4S437,16,437,17.59v1c0,2.15.49,3.63,2.52,5.9l4.67,5.23c4.12,4.67,5,7.75,5,11.75v2.15c0,6.89-3.14,11.31-10,11.31h-1.6c-6.21,0-9.35-3.32-9.35-9.47V37.26h8.06v7.32c0,1.84.68,2.77,2.09,2.77s2-1.11,2-3.32v-.86c0-3.2-.18-4.49-2.64-7.13L433,30.81c-3.44-3.69-4.37-7.19-4.37-11.62v-2c0-5.9,3.57-9.1,9.29-9.1Z"/><path class="cls-1" d="M461.75,8.12c6.4,0,8.79,2.83,8.79,9v6.15h-7.87V17.53c0-1.48-.31-2.4-1.78-2.4s-1.78.92-1.78,2.46v1c0,2.15.49,3.63,2.52,5.9l4.67,5.23c4.12,4.67,5,7.75,5,11.75v2.15c0,6.89-3.14,11.31-10,11.31h-1.6c-6.21,0-9.35-3.32-9.35-9.47V37.26h8.06v7.32c0,1.84.68,2.77,2.09,2.77s2-1.11,2-3.32v-.86c0-3.2-.18-4.49-2.64-7.13l-4.74-5.23c-3.44-3.69-4.37-7.19-4.37-11.62v-2c0-5.9,3.57-9.1,9.29-9.1Z"/><path class="cls-1" d="M490.22,8.67v8.06H481.3v10h7v8.24h-7V46.18h9.35v8.24H473.12V8.67Z"/><path class="cls-1" d="M500.67,54.42h-8.18V8.67h12.91c5,0,7.5,2.71,7.5,7.63v7.32c0,3.81-2.09,5.47-3.63,6.15a5.55,5.55,0,0,1,3.5,5.41V50.73a6.4,6.4,0,0,0,.68,3.38v.31h-8.18c-.43-.49-.74-1.48-.74-3.5V37.57c0-2.15-.49-2.71-2.15-2.71h-1.72Zm0-27.12h1.6c1.66,0,2.28-.62,2.28-2.77V18.33c0-2-.37-2.58-2-2.58h-1.84Z"/><path class="cls-2" d="M533,46.73H528l-.74,7.69h-7.26l5.78-45.75h9.72l6.21,45.75h-7.93Zm1-39.66h-6.4L524.91,0h6.46Zm-5.17,31.79h3.32l-1.72-15.68Z"/><path class="cls-2" d="M557.44,8.67V46.18h8.67v8.24H549.26V8.67Z"/><path class="cls-2" d="M565.06,22.2a23.77,23.77,0,0,0,1.17-5.66h-2.64V8.67h6.83V15a19.28,19.28,0,0,1-1.48,7.19Z"/><path class="cls-2" d="M589.66,8.67v8.06h-8.92v10h7v8.24h-7V46.18h9.35v8.24H572.56V8.67ZM580.56,0h6.52l-2.77,7.07h-6.39Z"/><path class="cls-2" d="M611,8.67v8.06h-5.84v37.7H597V16.73h-5.84V8.67Z"/><path class="cls-2" d="M621.64,46.73h-4.92L616,54.42h-7.26L614.5,8.67h9.72l6.21,45.75H622.5Zm-4.12-7.87h3.32l-1.72-15.68Z"/><path class="cls-2" d="M639.78,36.1V54.42H631.6V8.67h11.62c6.95,0,8.42,3.38,8.42,9v9.16c0,5.66-2.28,9.22-8,9.22Zm0-7.44h1.54c1.91,0,2.09-1.17,2.09-2.58V18.45c0-1.66-.18-2.71-2.09-2.71h-1.54Z"/><path class="cls-2" d="M670.89,8.67v8.06H662v10h7v8.24h-7V46.18h9.35v8.24H653.8V8.67Z"/><path class="cls-2" d="M690.2,8.12c6.4,0,8.79,2.83,8.79,9v6.15h-7.87V17.53c0-1.48-.31-2.4-1.78-2.4s-1.78.92-1.78,2.46v1c0,2.15.49,3.63,2.52,5.9l4.67,5.23c4.12,4.67,5,7.75,5,11.75v2.15c0,6.89-3.14,11.31-10,11.31h-1.6c-6.21,0-9.35-3.32-9.35-9.47V37.26h8.06v7.32c0,1.84.68,2.77,2.09,2.77s2-1.11,2-3.32v-.86c0-3.2-.18-4.49-2.64-7.13l-4.74-5.23c-3.44-3.69-4.37-7.19-4.37-11.62v-2c0-5.9,3.57-9.1,9.29-9.1Z"/><path class="cls-2" d="M701.51,8.67h8.42V44.09c0,1.91.68,2.83,2,2.83s2-.92,2-2.83V8.67h8.42V43.78c0,7.63-3.57,11.31-9.47,11.31h-2c-6,0-9.35-3.69-9.35-11.31Z"/><path class="cls-2" d="M733.06,36.1V54.42h-8.18V8.67H736.5c6.95,0,8.42,3.38,8.42,9v9.16c0,5.66-2.28,9.22-8,9.22Zm0-7.44h1.54c1.91,0,2.09-1.17,2.09-2.58V18.45c0-1.66-.18-2.71-2.09-2.71h-1.54Z"/><path class="cls-2" d="M764.18,8.67v8.06h-8.92v10h7v8.24h-7V46.18h9.35v8.24H747.08V8.67ZM755.07,0h6.52l-2.77,7.07h-6.39Z"/><path class="cls-2" d="M774.63,54.42h-8.18V8.67h12.91c5,0,7.5,2.71,7.5,7.63v7.32c0,3.81-2.09,5.47-3.63,6.15a5.55,5.55,0,0,1,3.5,5.41V50.73a6.4,6.4,0,0,0,.68,3.38v.31h-8.18c-.43-.49-.74-1.48-.74-3.5V37.57c0-2.15-.49-2.71-2.15-2.71h-1.72Zm0-27.12h1.6c1.66,0,2.28-.62,2.28-2.77V18.33c0-2-.37-2.58-2-2.58h-1.84Z"/><path class="cls-2" d="M797.32,54.42h-8.18V8.67h8.18Z"/><path class="cls-2" d="M817,8.67v8.06h-8.92v10h7v8.24h-7V46.18h9.35v8.24H799.9V8.67Z"/><path class="cls-2" d="M819.21,8.67h8.42V44.09c0,1.91.68,2.83,2,2.83s2-.92,2-2.83V8.67h8.42V43.78c0,7.63-3.57,11.31-9.47,11.31h-2c-6,0-9.35-3.69-9.35-11.31Z"/><path class="cls-2" d="M850.76,54.42h-8.18V8.67h12.91c5,0,7.5,2.71,7.5,7.63v7.32c0,3.81-2.09,5.47-3.63,6.15a5.55,5.55,0,0,1,3.5,5.41V50.73a6.4,6.4,0,0,0,.68,3.38v.31h-8.18c-.43-.49-.74-1.48-.74-3.5V37.57c0-2.15-.49-2.71-2.15-2.71h-1.72Zm0-27.12h1.6c1.66,0,2.28-.62,2.28-2.77V18.33c0-2-.37-2.58-2-2.58h-1.84Z"/><path class="cls-2" d="M882.36,8.67v8.06h-8.92v10h7v8.24h-7V46.18h9.35v8.24H865.27V8.67Z"/></svg>